<svg width="24" height="24" viewBox="0 0 24 24" fill="none" xmlns="http://www.w3.org/2000/svg"><path d="M4.98793 11.427C4.98791 11.2929 5.01436 11.1602 5.06576 11.0365C5.11716 10.9127 5.1925 10.8003 5.28745 10.7057C5.38241 10.6112 5.4951 10.5363 5.61906 10.4854C5.74302 10.4346 5.8758 10.4087 6.00979 10.4093L7.70392 10.4149C7.97404 10.4149 8.2331 10.5222 8.42411 10.7133C8.61511 10.9044 8.72242 11.1635 8.72242 11.4338V17.8421C8.91326 17.7856 9.15802 17.7253 9.42615 17.6623C9.61232 17.6185 9.77824 17.5131 9.897 17.3631C10.0158 17.2131 10.0804 17.0274 10.0805 16.8361V8.88704C10.0804 8.75322 10.1068 8.62071 10.158 8.49707C10.2091 8.37343 10.2842 8.26109 10.3788 8.16646C10.4733 8.07183 10.5856 7.99675 10.7092 7.94553C10.8328 7.89431 10.9653 7.86794 11.099 7.86793H12.7965C13.0666 7.86798 13.3257 7.97534 13.5167 8.1664C13.7077 8.35746 13.815 8.61659 13.815 8.8868V16.2648C13.815 16.2648 14.2398 16.0927 14.654 15.9179C14.8077 15.8528 14.939 15.7439 15.0313 15.6047C15.1236 15.4656 15.1728 15.3023 15.173 15.1352V6.33943C15.173 6.20564 15.1993 6.07315 15.2505 5.94953C15.3017 5.82592 15.3767 5.7136 15.4712 5.61899C15.5658 5.52438 15.6781 5.44933 15.8017 5.39812C15.9252 5.34692 16.0577 5.32057 16.1914 5.32057H17.8889C18.159 5.32057 18.4181 5.42791 18.6091 5.61898C18.8001 5.81005 18.9074 6.0692 18.9075 6.33943V13.5823C20.3791 12.5154 21.8707 11.2321 23.0543 9.68901C23.226 9.46502 23.3396 9.202 23.385 8.9234C23.4304 8.64481 23.4062 8.3593 23.3145 8.09235C22.5136 5.75757 21.0114 3.72722 19.0133 2.27893C17.0151 0.830639 14.6185 0.0350995 12.1512 0.00108791C5.49796 -0.0883192 -0.000595999 5.34467 5.75694e-05 12.0011C-0.0064751 14.1074 0.543072 16.1781 1.59313 18.0038C1.73794 18.2535 1.95098 18.4567 2.20723 18.5895C2.46347 18.7223 2.75228 18.7792 3.03972 18.7535C3.36087 18.7252 3.76069 18.6852 4.236 18.6294C4.44288 18.6058 4.63388 18.507 4.77261 18.3517C4.91135 18.1964 4.98813 17.9954 4.98834 17.7871V11.427" fill="#808080"></path><path d="M4.95125 21.7043C6.74056 23.0064 8.85507 23.788 11.0609 23.9626C13.2666 24.1372 15.4777 23.698 17.4494 22.6935C19.4212 21.6891 21.0767 20.1586 22.2329 18.2713C23.3891 16.3841 24.0008 14.2137 24.0005 12.0002C24.0005 11.7239 23.9877 11.4507 23.9692 11.179C19.5869 17.717 11.4954 20.7735 4.95117 21.7046" fill="#808080"></path></svg>