<svg width="24" height="24" viewBox="0 0 24 24" fill="none" xmlns="http://www.w3.org/2000/svg"><path d="M24 12C24 18.627 18.627 24 12 24C5.37296 24 0 18.627 0 12C0 5.37296 5.37296 0 12 0C18.6284 0 24 5.37296 24 12Z" fill="#808080"></path><path fill-rule="evenodd" clip-rule="evenodd" d="M5 16.8984V7H15.8783C17.4815 7 18.7812 8.29972 18.7812 9.90299V10.1719C18.7812 11.1686 17.9733 11.9766 16.9766 11.9766V12.1406C18.0941 12.1406 19 13.0465 19 14.1641V16.8984H14.9531V14.5625C14.9531 14.0102 14.5054 13.5625 13.9531 13.5625H9.04688V16.8984H5ZM14.1875 9.84375H9.04688V10.9375H14.1875C14.4895 10.9375 14.7344 10.6927 14.7344 10.3906C14.7344 10.0886 14.4895 9.84375 14.1875 9.84375Z" fill="white"></path></svg>